<svg width="219" height="51" viewBox="0 0 219 51" fill="none" xmlns="http://www.w3.org/2000/svg">
<path d="M22.9997 0C35.7026 0 45.9997 10.2971 45.9997 23V39.1C45.9997 40.93 45.2728 42.685 43.9788 43.979C42.6848 45.273 40.9297 46 39.0997 46H24.1497V35.9099C24.1497 33.6076 24.29 31.2225 25.4975 29.2629C26.362 27.8586 27.5185 26.6566 28.8884 25.7385C30.2583 24.8204 31.8096 24.2077 33.4371 23.9419L33.8776 23.8706C34.0592 23.8085 34.2168 23.6912 34.3284 23.5351C34.44 23.379 34.5 23.1919 34.5 23C34.5 22.8081 34.44 22.621 34.3284 22.4649C34.2168 22.3088 34.0592 22.1915 33.8776 22.1294L33.4371 22.0581C31.0591 21.6697 28.8632 20.5441 27.1594 18.8403C25.4556 17.1365 24.3301 14.9406 23.9416 12.5626L23.8703 12.1222C23.8082 11.9406 23.6909 11.7829 23.5348 11.6713C23.3787 11.5597 23.1916 11.4997 22.9997 11.4997C22.8078 11.4997 22.6208 11.5597 22.4647 11.6713C22.3086 11.7829 22.1913 11.9406 22.1292 12.1222L22.0579 12.5626C21.7922 14.1902 21.1795 15.7415 20.2614 17.1114C19.3433 18.4814 18.1412 19.6378 16.7368 20.5022C14.7772 21.7097 12.3921 21.85 10.0898 21.85H0.0273438C0.628794 9.68185 10.6832 0 22.9997 0Z" fill="#008080"/>
<path d="M0 24.15H10.0901C12.3924 24.15 14.7775 24.2903 16.7371 25.4978C18.2689 26.4417 19.5583 27.7311 20.5022 29.2629C21.7097 31.2225 21.85 33.6076 21.85 35.9099V46H6.9C5.07001 46 3.31496 45.273 2.02096 43.979C0.726962 42.685 0 40.93 0 39.1V24.15ZM46 2.3C46 2.91 45.7577 3.49501 45.3263 3.92635C44.895 4.35768 44.31 4.6 43.7 4.6C43.09 4.6 42.505 4.35768 42.0737 3.92635C41.6423 3.49501 41.4 2.91 41.4 2.3C41.4 1.69 41.6423 1.10499 42.0737 0.673654C42.505 0.242321 43.09 0 43.7 0C44.31 0 44.895 0.242321 45.3263 0.673654C45.7577 1.10499 46 1.69 46 2.3Z" fill="#5F6FFF"/>
<path d="M67.541 37.238C65.8863 37.238 64.3903 36.9547 63.053 36.388C61.7383 35.8213 60.6956 35.0053 59.925 33.94C59.1543 32.8747 58.7576 31.6167 58.735 30.166H63.835C63.903 31.1407 64.243 31.9113 64.855 32.478C65.4896 33.0447 66.351 33.328 67.439 33.328C68.5496 33.328 69.4223 33.0673 70.057 32.546C70.6916 32.002 71.009 31.2993 71.009 30.438C71.009 29.7353 70.7936 29.1573 70.363 28.704C69.9323 28.2507 69.3883 27.8993 68.731 27.65C68.0963 27.378 67.2123 27.0833 66.079 26.766C64.5376 26.3127 63.2796 25.8707 62.305 25.44C61.353 24.9867 60.5256 24.318 59.823 23.434C59.143 22.5273 58.803 21.326 58.803 19.83C58.803 18.4247 59.1543 17.2007 59.857 16.158C60.5596 15.1153 61.5456 14.322 62.815 13.778C64.0843 13.2113 65.535 12.928 67.167 12.928C69.615 12.928 71.5983 13.5287 73.117 14.73C74.6583 15.9087 75.5083 17.5633 75.667 19.694H70.431C70.3856 18.878 70.0343 18.2093 69.377 17.688C68.7423 17.144 67.8923 16.872 66.827 16.872C65.8976 16.872 65.1496 17.11 64.583 17.586C64.039 18.062 63.767 18.7533 63.767 19.66C63.767 20.2947 63.971 20.8273 64.379 21.258C64.8096 21.666 65.331 22.006 65.943 22.278C66.5776 22.5273 67.4616 22.822 68.595 23.162C70.1363 23.6153 71.3943 24.0687 72.369 24.522C73.3436 24.9753 74.1823 25.6553 74.885 26.562C75.5876 27.4687 75.939 28.6587 75.939 30.132C75.939 31.4013 75.6103 32.58 74.953 33.668C74.2956 34.756 73.3323 35.6287 72.063 36.286C70.7936 36.9207 69.2863 37.238 67.541 37.238ZM106.178 18.164L100.67 37H95.5357L92.1017 23.842L88.6677 37H83.4997L77.9577 18.164H82.7857L86.1177 32.512L89.7217 18.164H94.7537L98.2897 32.478L101.622 18.164H106.178ZM111.167 15.92C110.329 15.92 109.626 15.6593 109.059 15.138C108.515 14.594 108.243 13.9253 108.243 13.132C108.243 12.3387 108.515 11.6813 109.059 11.16C109.626 10.616 110.329 10.344 111.167 10.344C112.006 10.344 112.697 10.616 113.241 11.16C113.808 11.6813 114.091 12.3387 114.091 13.132C114.091 13.9253 113.808 14.594 113.241 15.138C112.697 15.6593 112.006 15.92 111.167 15.92ZM113.513 18.164V37H108.753V18.164H113.513ZM126.852 22.074H123.554V37H118.726V22.074H116.584V18.164H118.726V17.212C118.726 14.9 119.383 13.2 120.698 12.112C122.013 11.024 123.996 10.514 126.648 10.582V14.594C125.492 14.5713 124.687 14.764 124.234 15.172C123.781 15.58 123.554 16.3167 123.554 17.382V18.164H126.852V22.074ZM135.479 22.074V31.186C135.479 31.8207 135.626 32.2853 135.921 32.58C136.238 32.852 136.759 32.988 137.485 32.988H139.695V37H136.703C132.691 37 130.685 35.0507 130.685 31.152V22.074H128.441V18.164H130.685V13.506H135.479V18.164H139.695V22.074H135.479ZM141.894 27.582C141.894 25.6327 142.291 23.9327 143.084 22.482C143.878 21.0087 144.977 19.8753 146.382 19.082C147.788 18.266 149.397 17.858 151.21 17.858C153.545 17.858 155.472 18.4473 156.99 19.626C158.532 20.782 159.563 22.414 160.084 24.522H154.95C154.678 23.706 154.214 23.0713 153.556 22.618C152.922 22.142 152.128 21.904 151.176 21.904C149.816 21.904 148.74 22.4027 147.946 23.4C147.153 24.3747 146.756 25.7687 146.756 27.582C146.756 29.3727 147.153 30.7667 147.946 31.764C148.74 32.7387 149.816 33.226 151.176 33.226C153.103 33.226 154.361 32.3647 154.95 30.642H160.084C159.563 32.682 158.532 34.3027 156.99 35.504C155.449 36.7053 153.522 37.306 151.21 37.306C149.397 37.306 147.788 36.9093 146.382 36.116C144.977 35.3 143.878 34.1667 143.084 32.716C142.291 31.2427 141.894 29.5313 141.894 27.582ZM162.348 27.514C162.348 25.61 162.722 23.9213 163.47 22.448C164.24 20.9747 165.272 19.8413 166.564 19.048C167.878 18.2547 169.34 17.858 170.95 17.858C172.355 17.858 173.579 18.1413 174.622 18.708C175.687 19.2747 176.537 19.9887 177.172 20.85V18.164H181.966V37H177.172V34.246C176.56 35.13 175.71 35.8667 174.622 36.456C173.556 37.0227 172.321 37.306 170.916 37.306C169.329 37.306 167.878 36.898 166.564 36.082C165.272 35.266 164.24 34.1213 163.47 32.648C162.722 31.152 162.348 29.4407 162.348 27.514ZM177.172 27.582C177.172 26.426 176.945 25.44 176.492 24.624C176.038 23.7853 175.426 23.1507 174.656 22.72C173.885 22.2667 173.058 22.04 172.174 22.04C171.29 22.04 170.474 22.2553 169.726 22.686C168.978 23.1167 168.366 23.7513 167.89 24.59C167.436 25.406 167.21 26.3807 167.21 27.514C167.21 28.6473 167.436 29.6447 167.89 30.506C168.366 31.3447 168.978 31.9907 169.726 32.444C170.496 32.8973 171.312 33.124 172.174 33.124C173.058 33.124 173.885 32.9087 174.656 32.478C175.426 32.0247 176.038 31.39 176.492 30.574C176.945 29.7353 177.172 28.738 177.172 27.582ZM191.375 21.088C191.987 20.0907 192.78 19.3087 193.755 18.742C194.752 18.1753 195.885 17.892 197.155 17.892V22.89H195.897C194.401 22.89 193.267 23.2413 192.497 23.944C191.749 24.6467 191.375 25.8707 191.375 27.616V37H186.615V18.164H191.375V21.088ZM217.871 27.174C217.871 27.854 217.825 28.466 217.735 29.01H203.965C204.078 30.37 204.554 31.4353 205.393 32.206C206.231 32.9767 207.263 33.362 208.487 33.362C210.255 33.362 211.513 32.6027 212.261 31.084H217.395C216.851 32.8973 215.808 34.3933 214.267 35.572C212.725 36.728 210.833 37.306 208.589 37.306C206.775 37.306 205.143 36.9093 203.693 36.116C202.265 35.3 201.143 34.1553 200.327 32.682C199.533 31.2087 199.137 29.5087 199.137 27.582C199.137 25.6327 199.533 23.9213 200.327 22.448C201.12 20.9747 202.231 19.8413 203.659 19.048C205.087 18.2547 206.73 17.858 208.589 17.858C210.379 17.858 211.977 18.2433 213.383 19.014C214.811 19.7847 215.91 20.884 216.681 22.312C217.474 23.7173 217.871 25.338 217.871 27.174ZM212.941 25.814C212.918 24.59 212.476 23.6153 211.615 22.89C210.753 22.142 209.699 21.768 208.453 21.768C207.274 21.768 206.277 22.1307 205.461 22.856C204.667 23.5587 204.18 24.5447 203.999 25.814H212.941Z" fill="#000B6D"/>
</svg>
