<svg width="200" height="50" viewBox="0 0 200 50" fill="none" xmlns="http://www.w3.org/2000/svg">
<path d="M22.9997 4C35.7026 4 45.9997 14.2971 45.9997 27V43.1C45.9997 44.93 45.2728 46.685 43.9788 47.979C42.6848 49.273 40.9297 50 39.0997 50H24.1497V39.9099C24.1497 37.6076 24.29 35.2225 25.4975 33.2629C26.362 31.8586 27.5185 30.6566 28.8884 29.7385C30.2583 28.8204 31.8096 28.2077 33.4371 27.9419L33.8776 27.8706C34.0592 27.8085 34.2168 27.6912 34.3284 27.5351C34.44 27.379 34.5 27.1919 34.5 27C34.5 26.8081 34.44 26.621 34.3284 26.4649C34.2168 26.3088 34.0592 26.1915 33.8776 26.1294L33.4371 26.0581C31.0591 25.6697 28.8632 24.5441 27.1594 22.8403C25.4556 21.1365 24.3301 18.9406 23.9416 16.5626L23.8703 16.1222C23.8082 15.9406 23.6909 15.7829 23.5348 15.6713C23.3787 15.5597 23.1916 15.4997 22.9997 15.4997C22.8078 15.4997 22.6208 15.5597 22.4647 15.6713C22.3086 15.7829 22.1913 15.9406 22.1292 16.1222L22.0579 16.5626C21.7922 18.1902 21.1795 19.7415 20.2614 21.1114C19.3433 22.4814 18.1412 23.6378 16.7368 24.5022C14.7772 25.7097 12.3921 25.85 10.0898 25.85H0.0273438C0.628794 13.6819 10.6832 4 22.9997 4Z" fill="#008080"/>
<path d="M0 28.15H10.0901C12.3924 28.15 14.7775 28.2903 16.7371 29.4978C18.2689 30.4417 19.5583 31.7311 20.5022 33.2629C21.7097 35.2225 21.85 37.6076 21.85 39.9099V50H6.9C5.07001 50 3.31496 49.273 2.02096 47.979C0.726962 46.685 0 44.93 0 43.1V28.15ZM46 6.3C46 6.91 45.7577 7.49501 45.3263 7.92635C44.895 8.35768 44.31 8.6 43.7 8.6C43.09 8.6 42.505 8.35768 42.0737 7.92635C41.6423 7.49501 41.4 6.91 41.4 6.3C41.4 5.69 41.6423 5.10499 42.0737 4.67365C42.505 4.24232 43.09 4 43.7 4C44.31 4 44.895 4.24232 45.3263 4.67365C45.7577 5.10499 46 5.69 46 6.3Z" fill="#5F6FFF"/>
<path d="M66.3303 33.21C64.8703 33.21 63.5503 32.96 62.3703 32.46C61.2103 31.96 60.2903 31.24 59.6103 30.3C58.9303 29.36 58.5803 28.25 58.5603 26.97H63.0603C63.1203 27.83 63.4203 28.51 63.9603 29.01C64.5203 29.51 65.2803 29.76 66.2403 29.76C67.2203 29.76 67.9903 29.53 68.5503 29.07C69.1103 28.59 69.3903 27.97 69.3903 27.21C69.3903 26.59 69.2003 26.08 68.8203 25.68C68.4403 25.28 67.9603 24.97 67.3803 24.75C66.8203 24.51 66.0403 24.25 65.0403 23.97C63.6803 23.57 62.5703 23.18 61.7103 22.8C60.8703 22.4 60.1403 21.81 59.5203 21.03C58.9203 20.23 58.6203 19.17 58.6203 17.85C58.6203 16.61 58.9303 15.53 59.5503 14.61C60.1703 13.69 61.0403 12.99 62.1603 12.51C63.2803 12.01 64.5603 11.76 66.0003 11.76C68.1603 11.76 69.9103 12.29 71.2503 13.35C72.6103 14.39 73.3603 15.85 73.5003 17.73H68.8803C68.8403 17.01 68.5303 16.42 67.9503 15.96C67.3903 15.48 66.6403 15.24 65.7003 15.24C64.8803 15.24 64.2203 15.45 63.7203 15.87C63.2403 16.29 63.0003 16.9 63.0003 17.7C63.0003 18.26 63.1803 18.73 63.5403 19.11C63.9203 19.47 64.3803 19.77 64.9203 20.01C65.4803 20.23 66.2603 20.49 67.2603 20.79C68.6203 21.19 69.7303 21.59 70.5903 21.99C71.4503 22.39 72.1903 22.99 72.8103 23.79C73.4303 24.59 73.7403 25.64 73.7403 26.94C73.7403 28.06 73.4503 29.1 72.8703 30.06C72.2903 31.02 71.4403 31.79 70.3203 32.37C69.2003 32.93 67.8703 33.21 66.3303 33.21ZM100.422 16.38L95.5615 33H91.0315L88.0015 21.39L84.9715 33H80.4115L75.5215 16.38H79.7815L82.7215 29.04L85.9015 16.38H90.3415L93.4615 29.01L96.4015 16.38H100.422ZM104.824 14.4C104.084 14.4 103.464 14.17 102.964 13.71C102.484 13.23 102.244 12.64 102.244 11.94C102.244 11.24 102.484 10.66 102.964 10.2C103.464 9.72 104.084 9.48 104.824 9.48C105.564 9.48 106.174 9.72 106.654 10.2C107.154 10.66 107.404 11.24 107.404 11.94C107.404 12.64 107.154 13.23 106.654 13.71C106.174 14.17 105.564 14.4 104.824 14.4ZM106.894 16.38V33H102.694V16.38H106.894ZM118.664 19.83H115.754V33H111.494V19.83H109.604V16.38H111.494V15.54C111.494 13.5 112.074 12 113.234 11.04C114.394 10.08 116.144 9.63 118.484 9.69V13.23C117.464 13.21 116.754 13.38 116.354 13.74C115.954 14.1 115.754 14.75 115.754 15.69V16.38H118.664V19.83ZM126.275 19.83V27.87C126.275 28.43 126.405 28.84 126.665 29.1C126.945 29.34 127.405 29.46 128.045 29.46H129.995V33H127.355C123.815 33 122.045 31.28 122.045 27.84V19.83H120.065V16.38H122.045V12.27H126.275V16.38H129.995V19.83H126.275ZM131.936 24.69C131.936 22.97 132.286 21.47 132.986 20.19C133.686 18.89 134.656 17.89 135.896 17.19C137.136 16.47 138.556 16.11 140.156 16.11C142.216 16.11 143.916 16.63 145.256 17.67C146.616 18.69 147.526 20.13 147.986 21.99H143.456C143.216 21.27 142.806 20.71 142.226 20.31C141.666 19.89 140.966 19.68 140.126 19.68C138.926 19.68 137.976 20.12 137.276 21C136.576 21.86 136.226 23.09 136.226 24.69C136.226 26.27 136.576 27.5 137.276 28.38C137.976 29.24 138.926 29.67 140.126 29.67C141.826 29.67 142.936 28.91 143.456 27.39H147.986C147.526 29.19 146.616 30.62 145.256 31.68C143.896 32.74 142.196 33.27 140.156 33.27C138.556 33.27 137.136 32.92 135.896 32.22C134.656 31.5 133.686 30.5 132.986 29.22C132.286 27.92 131.936 26.41 131.936 24.69ZM149.983 24.63C149.983 22.95 150.313 21.46 150.973 20.16C151.653 18.86 152.563 17.86 153.703 17.16C154.863 16.46 156.153 16.11 157.573 16.11C158.813 16.11 159.893 16.36 160.813 16.86C161.753 17.36 162.503 17.99 163.063 18.75V16.38H167.293V33H163.063V30.57C162.523 31.35 161.773 32 160.813 32.52C159.873 33.02 158.783 33.27 157.543 33.27C156.143 33.27 154.863 32.91 153.703 32.19C152.563 31.47 151.653 30.46 150.973 29.16C150.313 27.84 149.983 26.33 149.983 24.63ZM163.063 24.69C163.063 23.67 162.863 22.8 162.463 22.08C162.063 21.34 161.523 20.78 160.843 20.4C160.163 20 159.433 19.8 158.653 19.8C157.873 19.8 157.153 19.99 156.493 20.37C155.833 20.75 155.293 21.31 154.873 22.05C154.473 22.77 154.273 23.63 154.273 24.63C154.273 25.63 154.473 26.51 154.873 27.27C155.293 28.01 155.833 28.58 156.493 28.98C157.173 29.38 157.893 29.58 158.653 29.58C159.433 29.58 160.163 29.39 160.843 29.01C161.523 28.61 162.063 28.05 162.463 27.33C162.863 26.59 163.063 25.71 163.063 24.69ZM175.595 18.96C176.135 18.08 176.835 17.39 177.695 16.89C178.575 16.39 179.575 16.14 180.695 16.14V20.55H179.585C178.265 20.55 177.265 20.86 176.585 21.48C175.925 22.1 175.595 23.18 175.595 24.72V33H171.395V16.38H175.595V18.96ZM198.974 24.33C198.974 24.93 198.934 25.47 198.854 25.95H186.704C186.804 27.15 187.224 28.09 187.964 28.77C188.704 29.45 189.614 29.79 190.694 29.79C192.254 29.79 193.364 29.12 194.024 27.78H198.554C198.074 29.38 197.154 30.7 195.794 31.74C194.434 32.76 192.764 33.27 190.784 33.27C189.184 33.27 187.744 32.92 186.464 32.22C185.204 31.5 184.214 30.49 183.494 29.19C182.794 27.89 182.444 26.39 182.444 24.69C182.444 22.97 182.794 21.46 183.494 20.16C184.194 18.86 185.174 17.86 186.434 17.16C187.694 16.46 189.144 16.11 190.784 16.11C192.364 16.11 193.774 16.45 195.014 17.13C196.274 17.81 197.244 18.78 197.924 20.04C198.624 21.28 198.974 22.71 198.974 24.33ZM194.624 23.13C194.604 22.05 194.214 21.19 193.454 20.55C192.694 19.89 191.764 19.56 190.664 19.56C189.624 19.56 188.744 19.88 188.024 20.52C187.324 21.14 186.894 22.01 186.734 23.13H194.624Z" fill="#000B6D"/>
<path d="M58.116 44.676V43.224H60.264C60.808 43.224 61.284 43.112 61.692 42.888C62.1 42.656 62.416 42.332 62.64 41.916C62.872 41.5 62.988 41.008 62.988 40.44C62.988 39.888 62.872 39.408 62.64 39C62.408 38.584 62.088 38.264 61.68 38.04C61.272 37.808 60.8 37.692 60.264 37.692H58.08V36.24H60.288C60.912 36.24 61.488 36.344 62.016 36.552C62.552 36.76 63.016 37.056 63.408 37.44C63.808 37.816 64.116 38.26 64.332 38.772C64.556 39.284 64.668 39.844 64.668 40.452C64.668 41.06 64.556 41.624 64.332 42.144C64.116 42.656 63.812 43.104 63.42 43.488C63.028 43.864 62.564 44.156 62.028 44.364C61.5 44.572 60.928 44.676 60.312 44.676H58.116ZM57 44.676V36.24H58.632V44.676H57ZM68.2208 44.796C67.6928 44.796 67.2168 44.664 66.7928 44.4C66.3688 44.136 66.0368 43.776 65.7968 43.32C65.5568 42.864 65.4368 42.352 65.4368 41.784C65.4368 41.208 65.5568 40.692 65.7968 40.236C66.0368 39.78 66.3688 39.42 66.7928 39.156C67.2168 38.892 67.6928 38.76 68.2208 38.76C68.6368 38.76 69.0088 38.844 69.3368 39.012C69.6648 39.18 69.9248 39.416 70.1168 39.72C70.3168 40.016 70.4248 40.352 70.4408 40.728V42.816C70.4248 43.2 70.3168 43.54 70.1168 43.836C69.9248 44.132 69.6648 44.368 69.3368 44.544C69.0088 44.712 68.6368 44.796 68.2208 44.796ZM68.5088 43.344C68.9488 43.344 69.3048 43.2 69.5768 42.912C69.8488 42.616 69.9848 42.236 69.9848 41.772C69.9848 41.468 69.9208 41.2 69.7928 40.968C69.6728 40.728 69.5008 40.544 69.2768 40.416C69.0608 40.28 68.8048 40.212 68.5088 40.212C68.2208 40.212 67.9648 40.28 67.7408 40.416C67.5248 40.544 67.3528 40.728 67.2248 40.968C67.1048 41.2 67.0448 41.468 67.0448 41.772C67.0448 42.084 67.1048 42.36 67.2248 42.6C67.3528 42.832 67.5248 43.016 67.7408 43.152C67.9648 43.28 68.2208 43.344 68.5088 43.344ZM69.9008 44.676V43.116L70.1528 41.7L69.9008 40.308V38.88H71.4608V44.676H69.9008ZM74.8435 44.808C74.5155 44.808 74.1915 44.764 73.8715 44.676C73.5595 44.588 73.2715 44.468 73.0075 44.316C72.7435 44.156 72.5155 43.964 72.3235 43.74L73.2595 42.792C73.4595 43.016 73.6915 43.184 73.9555 43.296C74.2195 43.408 74.5115 43.464 74.8315 43.464C75.0875 43.464 75.2795 43.428 75.4075 43.356C75.5435 43.284 75.6115 43.176 75.6115 43.032C75.6115 42.872 75.5395 42.748 75.3955 42.66C75.2595 42.572 75.0795 42.5 74.8555 42.444C74.6315 42.38 74.3955 42.312 74.1475 42.24C73.9075 42.16 73.6755 42.06 73.4515 41.94C73.2275 41.812 73.0435 41.64 72.8995 41.424C72.7635 41.2 72.6955 40.912 72.6955 40.56C72.6955 40.192 72.7835 39.872 72.9595 39.6C73.1435 39.328 73.4035 39.116 73.7395 38.964C74.0755 38.812 74.4715 38.736 74.9275 38.736C75.4075 38.736 75.8395 38.82 76.2235 38.988C76.6155 39.156 76.9395 39.408 77.1955 39.744L76.2475 40.692C76.0715 40.476 75.8715 40.32 75.6475 40.224C75.4315 40.128 75.1955 40.08 74.9395 40.08C74.7075 40.08 74.5275 40.116 74.3995 40.188C74.2795 40.26 74.2195 40.36 74.2195 40.488C74.2195 40.632 74.2875 40.744 74.4235 40.824C74.5675 40.904 74.7515 40.976 74.9755 41.04C75.1995 41.096 75.4315 41.164 75.6715 41.244C75.9195 41.316 76.1515 41.42 76.3675 41.556C76.5915 41.692 76.7715 41.872 76.9075 42.096C77.0515 42.32 77.1235 42.608 77.1235 42.96C77.1235 43.528 76.9195 43.98 76.5115 44.316C76.1035 44.644 75.5475 44.808 74.8435 44.808ZM82.0836 44.676V41.352C82.0836 41.008 81.9756 40.728 81.7596 40.512C81.5436 40.296 81.2636 40.188 80.9196 40.188C80.6956 40.188 80.4956 40.236 80.3196 40.332C80.1436 40.428 80.0036 40.564 79.8996 40.74C79.8036 40.916 79.7556 41.12 79.7556 41.352L79.1436 41.04C79.1436 40.584 79.2396 40.188 79.4316 39.852C79.6236 39.508 79.8876 39.24 80.2236 39.048C80.5676 38.856 80.9596 38.76 81.3996 38.76C81.8396 38.76 82.2276 38.856 82.5636 39.048C82.9076 39.24 83.1756 39.504 83.3676 39.84C83.5596 40.176 83.6556 40.564 83.6556 41.004V44.676H82.0836ZM78.1836 44.676V36H79.7556V44.676H78.1836ZM88.1378 44.796C87.7218 44.796 87.3458 44.708 87.0098 44.532C86.6738 44.356 86.4058 44.116 86.2058 43.812C86.0058 43.508 85.8978 43.168 85.8818 42.792V40.728C85.8978 40.352 86.0058 40.016 86.2058 39.72C86.4138 39.416 86.6858 39.18 87.0218 39.012C87.3578 38.844 87.7298 38.76 88.1378 38.76C88.6738 38.76 89.1538 38.892 89.5778 39.156C90.0018 39.42 90.3338 39.78 90.5738 40.236C90.8218 40.692 90.9458 41.208 90.9458 41.784C90.9458 42.352 90.8218 42.864 90.5738 43.32C90.3338 43.776 90.0018 44.136 89.5778 44.4C89.1538 44.664 88.6738 44.796 88.1378 44.796ZM87.8738 43.344C88.1618 43.344 88.4138 43.28 88.6298 43.152C88.8538 43.016 89.0258 42.832 89.1458 42.6C89.2738 42.36 89.3378 42.084 89.3378 41.772C89.3378 41.468 89.2738 41.2 89.1458 40.968C89.0258 40.728 88.8538 40.544 88.6298 40.416C88.4058 40.28 88.1498 40.212 87.8618 40.212C87.5738 40.212 87.3178 40.28 87.0938 40.416C86.8778 40.544 86.7058 40.728 86.5778 40.968C86.4578 41.2 86.3978 41.468 86.3978 41.772C86.3978 42.084 86.4578 42.36 86.5778 42.6C86.7058 42.832 86.8818 43.016 87.1058 43.152C87.3298 43.28 87.5858 43.344 87.8738 43.344ZM84.9218 44.676V36H86.4938V40.308L86.2298 41.7L86.4818 43.116V44.676H84.9218ZM94.7005 44.796C94.1165 44.796 93.5885 44.664 93.1165 44.4C92.6525 44.128 92.2805 43.764 92.0005 43.308C91.7285 42.844 91.5925 42.328 91.5925 41.76C91.5925 41.192 91.7285 40.684 92.0005 40.236C92.2725 39.78 92.6445 39.42 93.1165 39.156C93.5885 38.884 94.1125 38.748 94.6885 38.748C95.2805 38.748 95.8085 38.884 96.2725 39.156C96.7445 39.42 97.1165 39.78 97.3885 40.236C97.6605 40.684 97.7965 41.192 97.7965 41.76C97.7965 42.328 97.6605 42.844 97.3885 43.308C97.1165 43.764 96.7445 44.128 96.2725 44.4C95.8085 44.664 95.2845 44.796 94.7005 44.796ZM94.6885 43.332C94.9845 43.332 95.2445 43.268 95.4685 43.14C95.7005 43.004 95.8765 42.82 95.9965 42.588C96.1245 42.348 96.1885 42.076 96.1885 41.772C96.1885 41.468 96.1245 41.2 95.9965 40.968C95.8685 40.736 95.6925 40.556 95.4685 40.428C95.2445 40.292 94.9845 40.224 94.6885 40.224C94.4005 40.224 94.1445 40.292 93.9205 40.428C93.6965 40.556 93.5205 40.736 93.3925 40.968C93.2645 41.2 93.2005 41.468 93.2005 41.772C93.2005 42.076 93.2645 42.348 93.3925 42.588C93.5205 42.82 93.6965 43.004 93.9205 43.14C94.1445 43.268 94.4005 43.332 94.6885 43.332ZM101.233 44.796C100.705 44.796 100.229 44.664 99.805 44.4C99.381 44.136 99.049 43.776 98.809 43.32C98.569 42.864 98.449 42.352 98.449 41.784C98.449 41.208 98.569 40.692 98.809 40.236C99.049 39.78 99.381 39.42 99.805 39.156C100.229 38.892 100.705 38.76 101.233 38.76C101.649 38.76 102.021 38.844 102.349 39.012C102.677 39.18 102.937 39.416 103.129 39.72C103.329 40.016 103.437 40.352 103.453 40.728V42.816C103.437 43.2 103.329 43.54 103.129 43.836C102.937 44.132 102.677 44.368 102.349 44.544C102.021 44.712 101.649 44.796 101.233 44.796ZM101.521 43.344C101.961 43.344 102.317 43.2 102.589 42.912C102.861 42.616 102.997 42.236 102.997 41.772C102.997 41.468 102.933 41.2 102.805 40.968C102.685 40.728 102.513 40.544 102.289 40.416C102.073 40.28 101.817 40.212 101.521 40.212C101.233 40.212 100.977 40.28 100.753 40.416C100.537 40.544 100.365 40.728 100.237 40.968C100.117 41.2 100.057 41.468 100.057 41.772C100.057 42.084 100.117 42.36 100.237 42.6C100.365 42.832 100.537 43.016 100.753 43.152C100.977 43.28 101.233 43.344 101.521 43.344ZM102.913 44.676V43.116L103.165 41.7L102.913 40.308V38.88H104.473V44.676H102.913ZM105.863 44.676V38.88H107.435V44.676H105.863ZM107.435 41.472L106.823 41.064C106.895 40.352 107.103 39.792 107.447 39.384C107.791 38.968 108.287 38.76 108.935 38.76C109.215 38.76 109.467 38.808 109.691 38.904C109.915 38.992 110.119 39.14 110.303 39.348L109.319 40.476C109.231 40.38 109.123 40.308 108.995 40.26C108.875 40.212 108.735 40.188 108.575 40.188C108.239 40.188 107.963 40.296 107.747 40.512C107.539 40.72 107.435 41.04 107.435 41.472ZM113.139 44.796C112.603 44.796 112.123 44.664 111.699 44.4C111.275 44.136 110.939 43.776 110.691 43.32C110.451 42.864 110.331 42.352 110.331 41.784C110.331 41.208 110.451 40.692 110.691 40.236C110.939 39.78 111.271 39.42 111.687 39.156C112.111 38.892 112.595 38.76 113.139 38.76C113.555 38.76 113.927 38.844 114.255 39.012C114.591 39.18 114.859 39.416 115.059 39.72C115.267 40.016 115.379 40.352 115.395 40.728V42.792C115.379 43.168 115.271 43.508 115.071 43.812C114.871 44.116 114.603 44.356 114.267 44.532C113.931 44.708 113.555 44.796 113.139 44.796ZM113.403 43.344C113.699 43.344 113.955 43.28 114.171 43.152C114.395 43.016 114.567 42.832 114.687 42.6C114.815 42.36 114.879 42.084 114.879 41.772C114.879 41.468 114.815 41.2 114.687 40.968C114.567 40.728 114.395 40.544 114.171 40.416C113.955 40.28 113.703 40.212 113.415 40.212C113.119 40.212 112.859 40.28 112.635 40.416C112.419 40.552 112.247 40.736 112.119 40.968C111.999 41.2 111.939 41.468 111.939 41.772C111.939 42.084 111.999 42.36 112.119 42.6C112.247 42.832 112.423 43.016 112.647 43.152C112.871 43.28 113.123 43.344 113.403 43.344ZM116.355 44.676H114.795V43.116L115.047 41.7L114.783 40.308V36H116.355V44.676ZM121.458 41.544V40.212H123.414C123.67 40.212 123.902 40.16 124.11 40.056C124.318 39.952 124.482 39.804 124.602 39.612C124.722 39.412 124.782 39.172 124.782 38.892C124.782 38.62 124.722 38.384 124.602 38.184C124.482 37.984 124.318 37.832 124.11 37.728C123.902 37.624 123.67 37.572 123.414 37.572H121.458V36.24H123.582C124.118 36.24 124.598 36.348 125.022 36.564C125.454 36.78 125.794 37.088 126.042 37.488C126.29 37.88 126.414 38.348 126.414 38.892C126.414 39.436 126.29 39.908 126.042 40.308C125.794 40.7 125.454 41.004 125.022 41.22C124.598 41.436 124.118 41.544 123.582 41.544H121.458ZM120.258 44.676V36.24H121.89V44.676H120.258ZM129.639 44.796C129.111 44.796 128.635 44.664 128.211 44.4C127.787 44.136 127.455 43.776 127.215 43.32C126.975 42.864 126.855 42.352 126.855 41.784C126.855 41.208 126.975 40.692 127.215 40.236C127.455 39.78 127.787 39.42 128.211 39.156C128.635 38.892 129.111 38.76 129.639 38.76C130.055 38.76 130.427 38.844 130.755 39.012C131.083 39.18 131.343 39.416 131.535 39.72C131.735 40.016 131.843 40.352 131.859 40.728V42.816C131.843 43.2 131.735 43.54 131.535 43.836C131.343 44.132 131.083 44.368 130.755 44.544C130.427 44.712 130.055 44.796 129.639 44.796ZM129.927 43.344C130.367 43.344 130.723 43.2 130.995 42.912C131.267 42.616 131.403 42.236 131.403 41.772C131.403 41.468 131.339 41.2 131.211 40.968C131.091 40.728 130.919 40.544 130.695 40.416C130.479 40.28 130.223 40.212 129.927 40.212C129.639 40.212 129.383 40.28 129.159 40.416C128.943 40.544 128.771 40.728 128.643 40.968C128.523 41.2 128.463 41.468 128.463 41.772C128.463 42.084 128.523 42.36 128.643 42.6C128.771 42.832 128.943 43.016 129.159 43.152C129.383 43.28 129.639 43.344 129.927 43.344ZM131.319 44.676V43.116L131.571 41.7L131.319 40.308V38.88H132.879V44.676H131.319ZM138.17 44.676V41.352C138.17 41.008 138.062 40.728 137.846 40.512C137.63 40.296 137.35 40.188 137.006 40.188C136.782 40.188 136.582 40.236 136.406 40.332C136.23 40.428 136.09 40.564 135.986 40.74C135.89 40.916 135.842 41.12 135.842 41.352L135.23 41.04C135.23 40.584 135.326 40.188 135.518 39.852C135.718 39.508 135.99 39.24 136.334 39.048C136.686 38.856 137.082 38.76 137.522 38.76C137.946 38.76 138.326 38.868 138.662 39.084C138.998 39.292 139.262 39.568 139.454 39.912C139.646 40.248 139.741 40.612 139.741 41.004V44.676H138.17ZM134.27 44.676V38.88H135.842V44.676H134.27ZM143.78 44.796C143.172 44.796 142.632 44.668 142.16 44.412C141.688 44.148 141.312 43.788 141.032 43.332C140.76 42.876 140.624 42.356 140.624 41.772C140.624 41.196 140.756 40.684 141.02 40.236C141.292 39.78 141.66 39.42 142.124 39.156C142.588 38.884 143.104 38.748 143.672 38.748C144.232 38.748 144.724 38.876 145.148 39.132C145.58 39.38 145.916 39.724 146.156 40.164C146.404 40.596 146.528 41.088 146.528 41.64C146.528 41.744 146.52 41.852 146.504 41.964C146.496 42.068 146.476 42.188 146.444 42.324L141.572 42.336V41.16L145.712 41.148L145.076 41.64C145.06 41.296 144.996 41.008 144.884 40.776C144.78 40.544 144.624 40.368 144.416 40.248C144.216 40.12 143.968 40.056 143.672 40.056C143.36 40.056 143.088 40.128 142.856 40.272C142.624 40.408 142.444 40.604 142.316 40.86C142.196 41.108 142.136 41.404 142.136 41.748C142.136 42.1 142.2 42.408 142.328 42.672C142.464 42.928 142.656 43.128 142.904 43.272C143.152 43.408 143.44 43.476 143.768 43.476C144.064 43.476 144.332 43.428 144.572 43.332C144.812 43.228 145.02 43.076 145.196 42.876L146.12 43.8C145.84 44.128 145.496 44.376 145.088 44.544C144.688 44.712 144.252 44.796 143.78 44.796ZM147.5 44.676V36H149.072V44.676H147.5Z" fill="#5F5F5F"/>
</svg>
